Coordinates
version=1
nRows=13
nColumns=36
inDegrees=yes

Units are S.I. units (second, meters, Newtons, ...)
If the header above contains a line with 'inDegrees', this indicates whether rotational values are in degrees (yes) or radians (no).

endheader
time	pelvis_tilt	pelvis_list	pelvis_rotation	pelvis_tx	pelvis_ty	pelvis_tz	hip_flexion_r	hip_adduction_r	hip_rotation_r	knee_angle_r	knee_angle_r_beta	ankle_angle_r	subtalar_angle_r	mtp_angle_r	hip_flexion_l	hip_adduction_l	hip_rotation_l	knee_angle_l	knee_angle_l_beta	ankle_angle_l	subtalar_angle_l	mtp_angle_l	lumbar_extension	lumbar_bending	lumbar_rotation	arm_flex_r	arm_add_r	arm_rot_r	elbow_flex_r	pro_sup_r	arm_flex_l	arm_add_l	arm_rot_l	elbow_flex_l	pro_sup_l
      0.00000000	      1.37411568	      2.73221538	     -1.65046462	      0.02530048	      1.27156710	     -0.09611881	     -7.56932637	     -1.04248575	      1.26657856	      4.53925650	      0.07922497	      7.44189912	     -9.37362326	     -5.39868151	     -4.81419746	      0.25710820	      4.14361309	      8.58104135	      0.14976742	      8.51927410	     -6.98464076	     -5.39868151	     -5.21323660	     -2.47021604	     -2.25170524	      9.38533016	     -7.50896697	     23.52605069	     26.34426072	     73.25034115	      5.59324578	     -8.38758746	     27.24081787	     25.60266624	     65.15430834
      0.01666670	      0.97677281	      2.92193351	     -2.13285480	      0.02692707	      1.26926654	     -0.09616738	     -7.65524395	     -1.06784639	      2.02664069	      3.38708490	      0.05911578	      9.61890908	     -7.50417317	     -5.62174152	     -5.14707879	      0.65735751	      4.51152148	      7.63895817	      0.13332497	      7.72632517	     -6.40089968	     -5.62174152	     -3.63999651	     -1.95698299	     -2.26774602	      9.47512649	     -7.88838138	     24.67754881	     26.18091532	     73.39636800	      4.81320787	     -8.22802550	     28.59297341	     25.28948633	     65.54473702
      0.03333330	      0.20435098	      3.16473273	     -2.37517993	      0.02951536	      1.26929436	     -0.09461039	     -7.28795629	     -1.16830375	      1.87483188	      2.71254867	      0.04734291	      9.68458867	     -7.42095192	     -5.87463881	     -4.50076693	      0.87659475	      4.26950010	      7.61257263	      0.13286446	      7.95451403	     -5.10117107	     -5.87463881	     -2.23578334	     -2.34812230	     -1.78332012	      9.03150403	     -7.73377508	     25.20678594	     25.89940799	     73.45020494	      4.63779438	     -8.28620829	     30.04172639	     24.10992851	     65.95188217
      0.05000000	      0.24990364	      3.25394419	     -2.46893383	      0.02755707	      1.26858838	     -0.09472366	     -7.47159581	     -1.31155031	      2.17743220	      2.62448353	      0.04580588	      9.58172799	     -7.29268215	     -6.37350520	     -4.82803571	      1.01958271	      4.37611441	      7.13248166	      0.12448529	      7.62883704	     -4.71763312	     -6.37350520	     -2.17842939	     -2.59361505	     -1.22735361	      8.69978403	     -7.76388911	     25.33487040	     25.55524736	     73.03138959	      4.75368152	     -8.19804099	     32.19074903	     22.84221926	     66.35594054
      0.06666670	      0.26297722	      3.27082726	     -2.69562555	      0.03136329	      1.26801790	     -0.09350644	     -7.68288135	     -1.34182364	      2.70358298	      2.46050804	      0.04294397	      9.64674518	     -7.68121575	     -6.78736263	     -4.94693376	      1.09400037	      4.74785567	      6.86404569	      0.11980020	      7.57950402	     -4.83390455	     -6.78736263	     -2.18124937	     -2.62159512	     -0.87595376	      8.29511764	     -7.63119373	     24.60735539	     25.28882528	     73.64062299	      4.40214725	     -7.93821981	     32.59334701	     22.05308399	     66.51374581
      0.08333330	      0.40897710	      3.33974045	     -2.98137344	      0.03116423	      1.26862605	     -0.09382480	     -7.99094905	     -1.48458648	      2.93274017	      2.24727956	      0.03922243	      9.78511561	     -7.58475318	     -7.05300006	     -5.02353393	      1.20935625	      4.81888779	      6.92531757	      0.12086959	      7.39640833	     -5.19451334	     -7.05300006	     -2.26917456	     -2.63808005	     -0.40864904	      7.93688722	     -7.46316203	     23.24670628	     24.63927876	     75.67323370	      3.95822265	     -7.55720728	     31.81055610	     21.33137259	     67.05172756
      0.10000000	      0.36858292	      3.45978015	     -3.12629544	      0.03018803	      1.26688621	     -0.09380447	     -7.96220319	     -1.66968469	      3.16322544	      2.14006387	      0.03735116	      9.85260412	     -7.83230172	     -7.38861461	     -4.70668101	      1.34938754	      5.02951037	      7.31295855	      0.12763520	      7.47512084	     -5.52889188	     -7.38861461	     -2.20785794	     -2.75603537	     -0.04594749	      7.25119356	     -7.08729673	     20.07484635	     24.23130492	     81.56820950	      3.47388730	     -7.14628713	     29.01241726	     20.69378494	     69.75591138
      0.11666670	      0.43148916	      3.51179991	     -3.30816355	      0.02741945	      1.26699359	     -0.09278122	     -8.01048942	     -1.72892271	      3.50208555	      2.03199521	      0.03546501	      9.47205157	     -8.27906714	     -7.43919272	     -4.36970709	      1.39363578	      5.06713302	      7.78910685	      0.13594556	      7.26639580	     -6.00389303	     -7.43919272	     -2.28373121	     -2.81265356	      0.14529194	      7.01733977	     -7.05136296	     20.83409004	     23.51905839	     78.58491694	      3.09160286	     -6.96336222	     27.66595463	     20.27081680	     68.35189189
      0.13333330	      0.31056162	      3.58558624	     -3.46065746	      0.02425600	      1.26686089	     -0.09343548	     -7.71315157	     -1.81693867	      3.62028270	      2.01208265	      0.03511747	      9.31116962	     -8.41951283	     -7.47647114	     -3.70167965	      1.44144523	      5.16413874	      8.53012344	      0.14887874	      7.03879458	     -6.52882755	     -7.47647114	     -2.33856899	     -2.84987660	      0.34009168	      6.46168025	     -6.78303368	     18.40274233	     22.97243703	     82.80837055	      2.68747698	     -6.66068649	     23.80539151	     19.98977247	     72.01738730
      0.15000000	      0.20020973	      3.62803231	     -3.41704104	      0.02428176	      1.27005456	     -0.09330800	     -7.60766611	     -1.86890746	      3.59633528	      1.84599078	      0.03221862	      9.06774824	     -8.34750042	     -7.48372729	     -2.93468302	      1.46194169	      5.52719893	      9.26044514	      0.16162526	      6.59029898	     -7.16616337	     -7.48372729	     -2.42811946	     -2.82036616	      0.51468975	      6.03762428	     -6.69556471	     18.19989933	     22.32829422	     78.38034448	      2.40629966	     -6.49000940	     22.23607460	     19.71074502	     69.22273563
      0.16666670	      0.09350631	      3.68316813	     -3.44262841	      0.01969611	      1.27153395	     -0.09253181	     -7.33039099	     -1.87049838	      3.96923401	      1.78842725	      0.03121394	      8.70531895	     -8.69012080	     -7.49450855	     -2.11631878	      1.47352500	      5.72009536	     10.12703484	      0.17675010	      6.58764842	     -7.24221764	     -7.49450855	     -2.69296053	     -2.86274904	      0.51879675	      5.88182423	     -6.66610161	     18.03685635	     21.55665643	     82.46327796	      2.27666849	     -6.47691549	     19.78791055	     19.62543497	     73.65426058
      0.18333330	      0.08668596	      3.67025352	     -3.30647902	      0.02377602	      1.27424990	     -0.09185546	     -7.44033105	     -1.81241260	      4.02186819	      1.58027262	      0.02758096	      8.30368171	     -8.68744431	     -7.49497213	     -1.58024413	      1.40739215	      6.13680473	     10.69955394	      0.18674244	      6.25110374	     -7.36486813	     -7.49497213	     -2.99103451	     -2.79898964	      0.62562258	      5.44322612	     -6.67875948	     17.67187203	     21.03325333	     81.40002639	      2.01860148	     -6.44413764	     18.64570071	     19.32057859	     72.87656075
      0.20000000	     -0.06815615	      3.68679974	     -3.34504753	      0.01515869	      1.27623969	     -0.09205319	     -7.11698663	     -1.76976158	      4.24379244	      1.55156558	      0.02707993	      8.00274784	     -8.73796130	     -7.49565967	     -0.90172785	      1.37951442	      6.24090469	     11.19667173	      0.19541879	      6.16799820	     -7.37909283	     -7.49565967	     -3.35569765	     -2.77010966	      0.58848910	      5.54449017	     -6.84041199	     19.34819209	     20.26223849	     79.67165355	      2.07050666	     -6.60607691	     18.51909023	     19.03714139	     71.71501109
